<svg width="140" height="48" viewBox="0 0 140 48" fill="none" xmlns="http://www.w3.org/2000/svg">
  <circle cx="24" cy="24" r="22" fill="#1e3a8a"/>
  <path d="M24 12C24 12 16 17 16 23C16 27.4 19.6 31 24 31C28.4 31 32 27.4 32 23C32 17 24 12 24 12Z" fill="#fbbf24"/>
  <path d="M24 17C24 17 19 20.5 19 24C19 26.8 21.2 29 24 29C26.8 29 29 26.8 29 24C29 20.5 24 17 24 17Z" fill="#1e3a8a"/>
  <path d="M24 24L21 21M24 24L27 21M24 24V29" stroke="#fbbf24" stroke-width="1.5" stroke-linecap="round"/>
  <text x="52" y="28" font-family="Georgia, serif" font-size="16" font-weight="700" fill="#1e3a8a">Devkalp</text>
  <text x="52" y="40" font-family="Arial, sans-serif" font-size="9" fill="#64748b" letter-spacing="2">FOUNDATION</text>
</svg>
